<svg width="160" height="160" viewBox="0 0 160 160" fill="none" xmlns="http://www.w3.org/2000/svg">
<g filter="url(#filter0_b_1_252)">
<circle cx="79.7772" cy="79.8381" r="79.4814" fill="url(#paint0_diamond_1_252)"/>
</g>
<path d="M87.7772 75.8381C87.7772 71.4199 84.1954 67.8381 79.7772 67.8381C75.3589 67.8381 71.7772 71.4199 71.7772 75.8381V83.8381C71.7772 88.2564 75.3589 91.8381 79.7772 91.8381C84.1954 91.8381 87.7772 88.2564 87.7772 83.8381V75.8381Z" stroke="#FCFCFC" stroke-width="2" stroke-linecap="round" stroke-linejoin="round"/>
<path d="M79.7772 73.1714V78.5047" stroke="#FCFCFC" stroke-width="2" stroke-linecap="round" stroke-linejoin="round"/>
<path d="M25.0855 75.0765L16.1127 73.8494L16.9063 68.0457L17.8736 68.178L17.2366 72.8362L20.2021 73.2418L20.7991 68.8763L21.7664 69.0085L21.1694 73.3741L24.2749 73.7988L24.9119 69.1405L25.8792 69.2728L25.0855 75.0765Z" fill="#FCFCFC"/>
<path d="M26.6162 65.6642L23.2574 60.6039L23.6933 60.7583L18.1311 62.4948L18.603 61.1628L23.1179 59.8049L22.9935 60.1561L20.3273 56.2952L20.8035 54.9511L24.0322 59.8017L23.5962 59.6473L29.3915 57.8299L28.9154 59.174L24.1267 60.612L24.2768 60.1882L27.0881 64.3322L26.6162 65.6642Z" fill="#FCFCFC"/>
<path d="M31.4212 53.7321L23.7307 48.9494L25.7116 45.7641C26.2227 44.9424 26.8103 44.4354 27.4743 44.2433C28.1384 44.0512 28.8159 44.17 29.5067 44.5996C30.1976 45.0293 30.6074 45.5866 30.736 46.2717C30.8573 46.9523 30.6625 47.7034 30.1514 48.5252L28.8014 50.696L32.0521 52.7176L31.4212 53.7321ZM27.9723 50.1804L29.2613 48.1078C29.596 47.5697 29.7293 47.0878 29.6611 46.6622C29.5857 46.2321 29.3262 45.8791 28.8826 45.6032C28.439 45.3273 28.0113 45.2529 27.5994 45.38C27.1876 45.5071 26.8143 45.8397 26.4796 46.3779L25.1907 48.4505L27.9723 50.1804Z" fill="#FCFCFC"/>
<path d="M38.1776 44.0033L31.5836 37.7955L32.4024 36.9257L38.2483 42.429L41.3389 39.146L42.0872 39.8504L38.1776 44.0033Z" fill="#FCFCFC"/>
<path d="M42.3812 33.4977C41.8403 32.716 41.5098 31.9449 41.3897 31.1844C41.2696 30.4239 41.3594 29.7109 41.659 29.0453C41.9657 28.3748 42.4782 27.791 43.1965 27.294C43.9078 26.8018 44.6277 26.5327 45.3562 26.4868C46.0917 26.4361 46.7977 26.5984 47.4741 26.9739C48.1506 27.3494 48.7568 27.9245 49.2929 28.6991C49.8338 29.4808 50.1632 30.2579 50.2811 31.0302C50.3942 31.7956 50.2998 32.517 49.998 33.1946C49.6983 33.8602 49.1928 34.4391 48.4816 34.9313C47.7633 35.4283 47.0399 35.6998 46.3114 35.7457C45.578 35.7845 44.8731 35.6162 44.1967 35.2407C43.5224 34.8533 42.9172 34.2723 42.3812 33.4977ZM43.4164 32.7813C44.0597 33.7109 44.7658 34.2949 45.5349 34.5334C46.304 34.7718 47.0864 34.6157 47.8822 34.0651C48.6498 33.5339 49.067 32.865 49.1337 32.0586C49.2027 31.2402 48.9131 30.3627 48.265 29.4261C47.6168 28.4894 46.9036 27.9103 46.1253 27.6886C45.3471 27.4669 44.5706 27.6241 43.7959 28.1602C43.0002 28.7108 42.5759 29.3845 42.5232 30.1813C42.4705 30.978 42.7683 31.8447 43.4164 32.7813Z" fill="#FCFCFC"/>
<path d="M56.3494 30.1295L53.0065 21.7126L56.4926 20.328C57.392 19.9708 58.1682 19.9067 58.8212 20.1357C59.4823 20.3616 59.9629 20.8526 60.2632 21.6087C60.4624 22.1101 60.5201 22.5802 60.4363 23.0189C60.3525 23.4576 60.1441 23.8491 59.8108 24.1934C59.4856 24.5345 59.0563 24.811 58.5231 25.0228L58.6596 24.775L58.9462 24.6612C59.2725 24.5316 59.5962 24.4998 59.9173 24.5658C60.2352 24.6238 60.5504 24.8027 60.863 25.1024L63.1664 27.4219L61.9367 27.9103L59.6786 25.6005C59.4074 25.312 59.1199 25.1682 58.8161 25.169C58.5203 25.1667 58.1774 25.243 57.7874 25.3979L56.0324 26.0949L57.4597 29.6885L56.3494 30.1295ZM55.691 25.2353L57.8997 24.3581C58.5126 24.1147 58.926 23.7984 59.1401 23.4093C59.3621 23.0171 59.3735 22.5702 59.1743 22.0688C58.9783 21.5753 58.6666 21.2661 58.2391 21.141C57.8164 21.0048 57.2987 21.0584 56.6858 21.3018L54.4771 22.179L55.691 25.2353Z" fill="#FCFCFC"/>
<path d="M67.5529 26.3074L65.9892 17.387L71.759 16.3757L71.9276 17.3373L67.2966 18.149L67.8133 21.0972L72.1533 20.3365L72.3219 21.2981L67.9819 22.0588L68.5231 25.1462L73.1541 24.3344L73.3226 25.296L67.5529 26.3074Z" fill="#FCFCFC"/>
<path d="M83.9552 24.9783L89.3689 16.6853L90.3959 16.8528L92.9568 26.4467L91.7397 26.2481L91.0503 23.5325L91.5078 23.9195L86.0688 23.0323L86.6763 22.819L85.1596 25.1747L83.9552 24.9783ZM89.6483 18.0845L86.9052 22.4529L86.6444 22.137L91.2466 22.8877L90.9623 23.1147L89.699 18.0928L89.6483 18.0845Z" fill="#FCFCFC"/>
<path d="M97.0485 27.6934L100.483 19.3136L101.339 19.6643L103.748 28.7593L103.462 28.6423L106.307 21.7007L107.341 22.1246L103.907 30.5044L103.063 30.1585L100.654 21.0636L100.928 21.1757L98.0826 28.1173L97.0485 27.6934Z" fill="#FCFCFC"/>
<path d="M108.337 32.9381L113.572 25.5476L116.077 27.3221C116.902 27.9062 117.496 28.542 117.859 29.2294C118.229 29.9219 118.365 30.6481 118.268 31.4081C118.175 32.1611 117.849 32.9324 117.29 33.7221C116.73 34.5119 116.108 35.0788 115.424 35.423C114.739 35.7672 114.009 35.8797 113.233 35.7603C112.464 35.6459 111.667 35.2967 110.843 34.7126L108.337 32.9381ZM109.899 32.8005L111.356 33.8325C112.341 34.5304 113.24 34.81 114.052 34.6714C114.863 34.5328 115.611 33.9812 116.294 33.0168C116.977 32.0524 117.247 31.1677 117.103 30.3629C116.964 29.5511 116.402 28.7962 115.417 28.0983L113.96 27.0663L109.899 32.8005Z" fill="#FCFCFC"/>
<path d="M122.711 45.7459L130.086 40.4888L133.486 45.2586L132.691 45.8253L129.962 41.9969L127.525 43.7344L130.082 47.3222L129.287 47.8889L126.73 44.3011L124.177 46.1206L126.907 49.949L126.112 50.5157L122.711 45.7459Z" fill="#FCFCFC"/>
<path d="M128.482 54.5834L136.791 50.9809L137.159 51.8295L132.534 60.023L132.412 59.7402L139.295 56.7561L139.739 57.7814L131.43 61.3838L131.067 60.547L135.692 52.3535L135.809 52.6246L128.926 55.6087L128.482 54.5834Z" fill="#FCFCFC"/>
<path d="M133.286 68.3768L141.178 66.833L140.577 63.7569L141.572 63.562L143.01 70.9119L142.014 71.1067L141.41 68.018L133.518 69.5619L133.286 68.3768Z" fill="#FCFCFC"/>
<path d="M134.492 77.3348L143.549 77.3863L143.515 83.2439L142.539 83.2384L142.566 78.5369L139.573 78.5198L139.548 82.9259L138.571 82.9204L138.596 78.5143L135.462 78.4965L135.435 83.198L134.459 83.1925L134.492 77.3348Z" fill="#FCFCFC"/>
<path d="M133.98 87.8839L142.837 89.7738L142.054 93.4423C141.852 94.3887 141.475 95.07 140.922 95.4862C140.367 95.9107 139.692 96.0381 138.896 95.8683C138.368 95.7557 137.945 95.5429 137.627 95.2297C137.308 94.9166 137.098 94.5259 136.997 94.0576C136.894 93.5978 136.902 93.0872 137.022 92.5261L137.152 92.7772L137.088 93.0787C137.014 93.4221 136.861 93.709 136.628 93.9395C136.403 94.1718 136.08 94.3348 135.657 94.4284L132.449 95.0575L132.725 93.7635L135.9 93.1668C136.29 93.1012 136.57 92.9419 136.737 92.6887C136.903 92.4439 137.03 92.1164 137.118 91.706L137.512 89.8592L133.73 89.0523L133.98 87.8839ZM138.416 90.0522L137.921 92.3764C137.783 93.0213 137.817 93.5407 138.021 93.9347C138.225 94.3371 138.59 94.5946 139.118 94.7072C139.637 94.818 140.067 94.7303 140.408 94.4441C140.756 94.168 140.999 93.7075 141.137 93.0626L141.633 90.7385L138.416 90.0522Z" fill="#FCFCFC"/>
<path d="M126.998 107.415L133.872 111.587L135.498 108.907L136.366 109.434L132.481 115.836L131.613 115.31L133.246 112.619L126.371 108.447L126.998 107.415Z" fill="#FCFCFC"/>
<path d="M121.942 114.874L128.462 121.16L127.633 122.02L124.784 119.274L121.129 123.066L123.978 125.812L123.14 126.681L116.619 120.396L117.457 119.526L120.398 122.361L124.054 118.569L121.113 115.734L121.942 114.874Z" fill="#FCFCFC"/>
<path d="M112.372 123.818L117.395 131.354L112.52 134.603L111.979 133.79L115.891 131.183L114.231 128.692L110.565 131.136L110.023 130.323L113.69 127.88L111.952 125.272L108.039 127.879L107.498 127.067L112.372 123.818Z" fill="#FCFCFC"/>
<path d="M97.9883 131.586L95.7014 137.213L95.5833 136.766L100.153 140.382L98.7864 140.743L95.12 137.778L95.4802 137.683L93.7936 142.062L92.415 142.426L94.6021 137.025L94.7202 137.472L89.9527 133.709L91.3313 133.345L95.2182 136.49L94.7835 136.605L96.6221 131.947L97.9883 131.586Z" fill="#FCFCFC"/>
<path d="M82.4181 134.353C83.1452 134.318 83.8041 134.38 84.3948 134.54C84.9856 134.701 85.503 134.941 85.9472 135.263L85.5822 136.232C85.2722 136.024 84.9594 135.851 84.6441 135.712C84.3291 135.581 83.9945 135.486 83.64 135.426C83.2775 135.374 82.8866 135.359 82.4675 135.379C81.7233 135.415 81.1822 135.574 80.8442 135.856C80.4981 136.147 80.3358 136.515 80.3572 136.96C80.3757 137.344 80.5139 137.634 80.7719 137.827C81.0298 138.02 81.4696 138.162 82.0912 138.252L83.4778 138.468C84.3157 138.6 84.9493 138.848 85.3784 139.213C85.7994 139.587 86.0259 140.108 86.058 140.775C86.0839 141.314 85.9654 141.791 85.7025 142.207C85.4314 142.631 85.0488 142.967 84.5548 143.214C84.0523 143.461 83.4589 143.601 82.7745 143.634C82.1415 143.664 81.5511 143.598 81.0031 143.436C80.4551 143.274 79.9884 143.018 79.6029 142.667L79.9697 141.737C80.3715 142.069 80.7985 142.301 81.2507 142.434C81.6948 142.575 82.1948 142.633 82.7508 142.606C83.4266 142.574 83.9542 142.402 84.3337 142.093C84.7132 141.783 84.891 141.38 84.8672 140.884C84.8482 140.49 84.7092 140.184 84.45 139.965C84.1912 139.755 83.7724 139.603 83.1935 139.511L81.8076 139.308C80.9269 139.178 80.2767 138.94 79.8569 138.591C79.4286 138.243 79.1988 137.744 79.1676 137.094C79.1429 136.581 79.2579 136.121 79.5127 135.714C79.7679 135.316 80.1428 134.998 80.6372 134.76C81.1316 134.522 81.7252 134.386 82.4181 134.353Z" fill="#FCFCFC"/>
<path d="M72.0694 134.006L70.8162 141.95L73.9123 142.438L73.7542 143.44L66.3565 142.273L66.5146 141.271L69.6234 141.761L70.8766 133.818L72.0694 134.006Z" fill="#FCFCFC"/>
<path d="M63.2465 132.11L59.9995 140.564L56.4978 139.219C55.5944 138.872 54.9803 138.393 54.6554 137.782C54.3224 137.168 54.3018 136.482 54.5935 135.722C54.787 135.218 55.0632 134.834 55.4221 134.568C55.7811 134.302 56.1997 134.156 56.6781 134.128C57.1484 134.098 57.6514 134.186 58.187 134.391L57.9187 134.481L57.6309 134.37C57.3031 134.245 57.0435 134.049 56.8522 133.782C56.6578 133.524 56.5473 133.179 56.5206 132.747L56.3992 129.48L57.6343 129.955L57.729 133.183C57.7329 133.579 57.8468 133.88 58.0707 134.085C58.2866 134.287 58.5904 134.464 58.9822 134.614L60.745 135.291L62.1313 131.682L63.2465 132.11ZM60.4133 136.155L58.1948 135.303C57.5793 135.066 57.0609 135.018 56.6398 135.159C56.2107 135.297 55.8994 135.618 55.706 136.122C55.5156 136.618 55.5352 137.056 55.7647 137.438C55.9832 137.825 56.4002 138.136 57.0158 138.373L59.2343 139.225L60.4133 136.155Z" fill="#FCFCFC"/>
<path d="M53.1831 127.902L44.8232 133.212L43.9576 132.635L45.5958 122.841L46.6217 123.525L46.1256 126.283L45.8693 125.741L50.4537 128.799L49.8124 128.742L52.1679 127.225L53.1831 127.902ZM45.1478 131.823L49.4525 128.981L49.5593 129.376L45.6801 126.789L46.0329 126.7L45.1051 131.794L45.1478 131.823Z" fill="#FCFCFC"/>
<path d="M40.895 118.408L35.1029 123.986L37.2771 126.244L36.5462 126.948L31.351 121.554L32.082 120.85L34.2652 123.117L40.0574 117.538L40.895 118.408Z" fill="#FCFCFC"/>
<path d="M35.0221 111.537L27.3865 116.407L24.2367 111.468L25.0598 110.943L27.5879 114.907L30.1115 113.298L27.7422 109.583L28.5654 109.058L30.9346 112.773L33.5773 111.087L31.0492 107.123L31.8723 106.598L35.0221 111.537Z" fill="#FCFCFC"/>
<path d="M28.3527 98.438C28.7004 99.3686 28.8201 100.215 28.7119 100.978C28.5956 101.744 28.2725 102.408 27.7426 102.972C27.2096 103.527 26.4939 103.973 25.5954 104.309C24.6969 104.644 23.8598 104.765 23.0841 104.671C22.3084 104.577 21.6272 104.283 21.0404 103.789C20.4507 103.287 19.991 102.595 19.6613 101.712C19.4306 101.094 19.318 100.524 19.3237 100.001C19.3294 99.4775 19.4333 98.9725 19.6354 98.4856L20.6832 98.5741C20.5545 98.9147 20.4669 99.2309 20.4204 99.5225C20.3739 99.8141 20.372 100.103 20.4148 100.389C20.4465 100.669 20.5283 100.986 20.6601 101.339C21.0287 102.326 21.6033 102.971 22.3837 103.273C23.1641 103.576 24.0919 103.526 25.1669 103.125C26.2579 102.717 26.9939 102.154 27.3747 101.436C27.7555 100.718 27.7466 99.8255 27.348 98.7585C27.2071 98.3814 27.0332 98.0259 26.8261 97.6918C26.6191 97.3578 26.3859 97.0518 26.1267 96.7738L26.7777 96.7912L23.9016 97.8655L24.6972 99.9955L23.8308 100.319L22.6755 97.2265L26.6467 95.7431C26.9661 96.0352 27.2808 96.425 27.5909 96.9125C27.901 97.4 28.155 97.9085 28.3527 98.438Z" fill="#FCFCFC"/>
<path d="M25.6206 88.3401L21.4239 88.9384L22.1634 88.5734L17.1516 93.1027L16.9558 91.7293L20.9209 88.2315L20.9625 88.524L16.1781 86.2735L15.9877 84.9382L22.0655 87.8867L21.2553 87.7557L25.452 87.1574L25.6206 88.3401Z" fill="#FCFCFC"/>
<defs>
<filter id="filter0_b_1_252" x="-14.7043" y="-14.6433" width="188.963" height="188.963" filterUnits="userSpaceOnUse" color-interpolation-filters="sRGB">
<feFlood flood-opacity="0" result="BackgroundImageFix"/>
<feGaussianBlur in="BackgroundImageFix" stdDeviation="7.5"/>
<feComposite in2="SourceAlpha" operator="in" result="effect1_backgroundBlur_1_252"/>
<feBlend mode="normal" in="SourceGraphic" in2="effect1_backgroundBlur_1_252" result="shape"/>
</filter>
<radialGradient id="paint0_diamond_1_252" cx="0" cy="0" r="1" gradientUnits="userSpaceOnUse" gradientTransform="translate(79.7772 79.8382) rotate(153.2) scale(402.062)">
<stop stop-color="#D41C25"/>
<stop offset="1" stop-color="#D41C25" stop-opacity="0"/>
</radialGradient>
</defs>
</svg>
