<svg width="704" height="91" viewBox="0 0 704 91" fill="none" xmlns="http://www.w3.org/2000/svg">
<path d="M694.823 46.7529H703.253C698.003 46.0638 692.656 46.0638 687.406 46.7529C684.326 45.9879 681.045 45.9879 677.965 46.7529C675.73 46.4718 673.457 46.4718 671.222 46.7529C670.41 46.4418 669.712 45.9572 669.198 45.3484H667.513L662.118 43.9439H664.815C666.71 44.2342 668.652 44.2342 670.547 43.9439V43.9439C670.547 43.9439 674.256 43.9439 673.919 41.9776C676.616 41.9776 679.651 41.9776 680.325 41.9776V40.5731C682.348 40.5731 684.371 40.5731 685.72 40.5731L690.44 37.7641H695.835C695.835 36.266 697.184 35.1424 699.881 34.3933C699.881 34.3933 703.253 34.3933 704.264 34.3933C705.276 34.3933 704.264 34.3933 702.241 34.3933H695.835V22.0338C695.835 22.0338 698.532 22.0338 700.218 22.0338C699.221 21.8313 698.181 21.8313 697.184 22.0338C695.96 21.3468 694.585 20.8693 693.138 20.6293C693.138 20.6293 689.429 20.6293 690.44 18.1012C691.452 15.5731 693.138 18.1012 695.498 18.1012C694.529 17.2472 693.198 16.743 691.789 16.6967C691.26 16.4947 690.685 16.3902 690.103 16.3902C689.521 16.3902 688.946 16.4947 688.417 16.6967V16.6967H683.36H679.314H682.685C685.72 16.6967 682.685 16.6967 682.685 15.0113C684.614 15.0131 686.496 14.523 688.08 13.6068C690.768 13.8775 693.485 13.8775 696.172 13.6068H687.743C687.743 13.6068 691.789 13.6068 692.126 13.6068C688.547 13.1879 684.916 13.1879 681.337 13.6068H669.536H661.781C661.781 13.6068 655.712 13.6068 658.072 11.6405C652.061 6.85251 644.95 3.12619 637.167 0.685472H631.098C624.823 0.119147 618.492 0.119147 612.217 0.685472C609.204 0.255776 606.126 0.255776 603.113 0.685472C601.427 0.685472 599.404 0.685472 597.718 0.685472C595.179 0.112655 592.503 0.112655 589.964 0.685472H587.266C581.871 0.685472 575.802 0.685472 570.07 0.685472C567.941 0.492855 565.793 0.492855 563.664 0.685472H507.694C507.694 0.685472 507.694 0.685472 506.008 0.685472C504.113 0.395208 502.171 0.395208 500.276 0.685472H466.559H500.276C484.766 0.685472 469.594 0.685472 454.421 0.685472H450.712C444.879 0.262704 439.013 0.262704 433.179 0.685472H423.739C409.915 0.685472 396.091 0.685472 382.267 0.685472H367.431H371.477C369.583 0.388788 367.639 0.388788 365.745 0.685472H357.99C356.665 0.387196 355.269 0.387196 353.944 0.685472V0.685472C347.875 0.685472 341.806 0.685472 335.737 0.685472H258.188H236.272H142.201C136.59 0.33769 130.955 0.33769 125.343 0.685472C121.529 0.405966 117.693 0.405966 113.879 0.685472V0.685472C111.856 0.685472 110.17 0.685472 109.496 0.685472C108.822 0.685472 107.473 3.49447 104.775 4.61807C102.078 5.74166 102.078 6.86526 104.775 8.26975L108.484 10.7978C105.168 10.6121 101.865 11.3 99.0436 12.7641H96.6834L91.6259 13.6068C89.6028 13.6068 86.2311 13.6068 85.2196 13.6068H79.4877H72.7443C74.8657 13.8952 77.0292 13.8952 79.1506 13.6068H81.5107V17.2585H75.4417H70.3841C64.9818 17.4512 59.6427 18.3029 54.5371 19.7866C50.8283 19.7866 48.4681 19.7866 44.7592 21.7529C47.1194 21.7529 48.8052 21.7529 50.4911 21.7529H52.1769H49.1424C46.4235 22.2765 43.8109 23.1282 41.3875 24.281C41.3875 24.281 38.6901 24.281 39.0273 25.9664C39.3645 27.6518 33.6326 28.4945 33.2954 30.4608H37.6786H34.9813C34.9813 30.4608 34.9813 32.1461 34.9813 32.9888H30.9352C30.5675 32.8398 30.164 32.7624 29.7551 32.7624C29.3462 32.7624 28.9427 32.8398 28.575 32.9888C22.506 34.3933 22.8431 34.3933 28.575 36.0787C23.9034 36.1851 19.2633 36.7508 14.751 37.7641C12.0537 37.7641 14.751 37.7641 14.751 37.7641C14.751 37.7641 10.3678 37.7641 8.00763 39.7304H3.28725H9.69348H0.252717C5.50267 40.4195 10.8498 40.4195 16.0997 39.7304V39.7304C19.1071 40.2087 22.1959 40.2087 25.2033 39.7304C27.5515 40.0108 29.9357 40.0108 32.2839 39.7304L34.3069 41.1349H35.9928H41.0503H38.6901H32.9582C32.9582 41.1349 29.2494 41.1349 29.5865 43.1012C26.8892 43.1012 23.8546 43.1012 23.1803 44.7866H24.1918C22.1688 44.7866 20.1458 44.7866 18.7971 44.7866C17.3661 45.8789 15.781 46.8221 14.0767 47.5956V47.5956L8.68197 49.281C8.68197 50.7791 7.3333 51.9027 4.63593 52.6518C4.63593 52.6518 1.26423 52.6518 0.252717 52.6518C-0.758794 52.6518 0.252715 52.6518 2.27574 52.6518H8.68197V54.3372C8.68197 54.3372 5.98462 54.3372 4.29876 54.3372C5.29568 54.5396 6.33638 54.5396 7.33329 54.3372C8.53422 55.1173 9.90967 55.6902 11.3793 56.0226C11.3793 56.0226 15.0882 56.0226 14.0767 58.2697C13.0652 60.5169 11.3793 58.2697 9.01914 58.2697C9.95276 59.2045 11.2792 59.8072 12.728 59.9551C13.257 60.1571 13.832 60.2617 14.4139 60.2617C14.9957 60.2617 15.5708 60.1571 16.0997 59.9551V59.9551H21.1573L24.1918 84.9551H20.8201C17.7856 84.9551 20.8201 84.9551 20.8201 84.9551C18.9518 85.2107 17.1359 85.6835 15.4254 86.3596C12.7487 85.9658 10.0099 85.9658 7.33329 86.3596H14.0767C14.0767 86.3596 10.0307 86.3596 9.69348 86.3596C13.2817 86.6474 16.8947 86.6474 20.4829 86.3596H32.2839H40.0388C40.0388 86.3596 46.1079 86.3596 43.7477 88.3259C50.187 89.9747 56.9069 90.7338 63.6407 90.5731H68.3611C74.6366 91.1394 80.9671 91.1394 87.2426 90.5731C90.2672 90.8633 93.3217 90.8633 96.3462 90.5731C98.1113 90.98 99.9759 90.98 101.741 90.5731V90.5731C104.3 91.0044 106.937 91.0044 109.496 90.5731H112.193C117.588 90.5731 123.657 90.5731 129.389 90.5731H195.811H197.497C199.392 90.8634 201.334 90.8634 203.229 90.5731H236.946H250.096H254.142C259.981 90.8566 265.835 90.8566 271.675 90.5731H280.778C294.94 90.5731 308.764 90.5731 322.588 90.5731H337.423H333.377C335.255 90.9901 337.231 90.9901 339.109 90.5731H346.864C346.864 90.5731 349.898 90.5731 350.91 90.5731C357.081 90.994 363.283 90.994 369.454 90.5731H446.329H468.245H525.901C530.278 90.8528 534.674 90.8528 539.051 90.5731H549.166C552.293 90.9929 555.48 90.9929 558.607 90.5731H562.316C568.385 90.5731 574.791 90.5731 580.86 90.5731C584.673 90.8616 588.51 90.8616 592.324 90.5731C594.347 90.5731 596.033 90.5731 596.707 90.5731C597.381 90.5731 598.73 87.7641 601.427 86.6405C604.125 85.5169 604.125 84.1124 601.427 82.9889L597.381 87.7641C600.655 87.6463 603.867 86.9774 606.822 85.7978C606.822 85.7978 608.845 85.7978 609.182 85.7978C609.182 85.7978 611.205 85.7978 611.542 85.7978C611.88 85.7978 616.937 85.7978 617.949 85.7978H624.355C626.587 86.1121 628.866 86.1121 631.098 85.7978C629.192 84.7816 626.951 84.2903 624.692 84.3933H622.332V80.4608H632.447C637.849 80.2681 643.188 79.4163 648.294 77.9327C652.003 77.9327 654.363 76.2473 658.072 75.6855C655.712 75.6855 654.026 75.6855 652.34 75.6855L655.375 74.281C658.18 74.0162 660.853 73.1447 663.129 71.7529V71.7529C663.129 71.7529 665.827 71.7529 665.49 70.3484C665.152 68.9439 670.884 67.8203 671.222 65.854H666.838L669.536 64.4495C669.536 64.4495 669.536 62.7641 669.536 61.9214H673.245H675.942C682.011 61.9214 681.674 60.236 675.942 58.8315C680.613 58.7252 685.254 58.1595 689.766 57.1462C692.463 57.1462 689.766 57.1462 689.766 57.1462C689.766 57.1462 694.149 55.7416 696.509 55.1798L701.23 53.7754H694.823C694.823 53.7754 692.8 46.7529 694.823 46.7529ZM594.01 82.9889C594.01 82.9889 593.672 82.708 593.672 82.9889H594.01ZM206.601 7.70794C206.601 7.70794 207.275 7.42704 206.601 7.42704V7.70794ZM496.905 90.0113L496.23 90.5731L496.905 90.0113ZM338.097 0.685472C338.097 0.685472 337.76 0.685472 338.097 0.685472V0.685472ZM247.399 0.685472C247.399 0.685472 247.399 0.685478 247.399 2.08997V0.685472Z" fill="#D41C25"/>
</svg>
