<svg width="159" height="159" viewBox="0 0 159 159" fill="none" xmlns="http://www.w3.org/2000/svg">
<g filter="url(#filter0_b_22_233)">
<circle cx="79.4814" cy="79.4814" r="79.4814" fill="url(#paint0_diamond_22_233)"/>
</g>
<path d="M24.7898 74.7198L15.8169 73.4927L16.6106 67.689L17.5779 67.8213L16.9409 72.4796L19.9064 72.8851L20.5034 68.5196L21.4707 68.6518L20.8737 73.0174L23.9792 73.4421L24.6162 68.7838L25.5835 68.9161L24.7898 74.7198Z" fill="#FCFCFC"/>
<path d="M26.3207 65.3075L22.9618 60.2472L23.3978 60.4016L17.8356 62.1381L18.3074 60.8061L22.8224 59.4483L22.698 59.7994L20.0318 55.9385L20.5079 54.5944L23.7366 59.445L23.3007 59.2906L29.096 57.4732L28.6199 58.8173L23.8312 60.2553L23.9813 59.8315L26.7925 63.9755L26.3207 65.3075Z" fill="#FCFCFC"/>
<path d="M31.1257 53.3755L23.4352 48.5927L25.4161 45.4075C25.9272 44.5857 26.5147 44.0787 27.1788 43.8866C27.8429 43.6945 28.5203 43.8133 29.2112 44.2429C29.9021 44.6726 30.3118 45.2299 30.4404 45.915C30.5618 46.5956 30.3669 47.3468 29.8559 48.1685L28.5059 50.3393L31.7566 52.361L31.1257 53.3755ZM27.6768 49.8237L28.9658 47.7511C29.3005 47.213 29.4337 46.7311 29.3656 46.3055C29.2902 45.8754 29.0307 45.5224 28.5871 45.2465C28.1435 44.9706 27.7157 44.8962 27.3039 45.0233C26.892 45.1504 26.5188 45.4831 26.1841 46.0212L24.8951 48.0938L27.6768 49.8237Z" fill="#FCFCFC"/>
<path d="M37.8822 43.6466L31.2881 37.4388L32.107 36.569L37.9528 42.0723L41.0435 38.7893L41.7917 39.4937L37.8822 43.6466Z" fill="#FCFCFC"/>
<path d="M42.0857 33.141C41.5448 32.3593 41.2143 31.5882 41.0942 30.8277C40.9741 30.0673 41.0639 29.3542 41.3636 28.6886C41.6703 28.0181 42.1828 27.4344 42.9011 26.9373C43.6123 26.4451 44.3322 26.176 45.0607 26.1301C45.7963 26.0794 46.5023 26.2417 47.1787 26.6172C47.8551 26.9927 48.4613 27.5678 48.9974 28.3424C49.5383 29.1241 49.8677 29.9012 49.9857 30.6736C50.0987 31.4389 50.0043 32.1603 49.7025 32.8379C49.4028 33.5035 48.8974 34.0824 48.1861 34.5746C47.4678 35.0716 46.7444 35.3431 46.0159 35.389C45.2825 35.4279 44.5776 35.2595 43.9012 34.884C43.2269 34.4966 42.6218 33.9156 42.0857 33.141ZM43.1209 32.4246C43.7642 33.3542 44.4704 33.9382 45.2394 34.1767C46.0085 34.4152 46.7909 34.2591 47.5867 33.7084C48.3543 33.1772 48.7715 32.5084 48.8383 31.7019C48.9072 30.8835 48.6176 30.006 47.9695 29.0694C47.3214 28.1328 46.6081 27.5536 45.8299 27.3319C45.0516 27.1102 44.2751 27.2674 43.5005 27.8035C42.7047 28.3542 42.2805 29.0279 42.2278 29.8246C42.1751 30.6213 42.4728 31.488 43.1209 32.4246Z" fill="#FCFCFC"/>
<path d="M56.0539 29.7728L52.7109 21.356L56.1971 19.9714C57.0964 19.6141 57.8727 19.55 58.5257 19.779C59.1867 20.0049 59.6674 20.4959 59.9677 21.252C60.1668 21.7534 60.2245 22.2235 60.1408 22.6622C60.057 23.1009 59.8485 23.4924 59.5153 23.8367C59.1901 24.1778 58.7608 24.4543 58.2275 24.6661L58.3641 24.4183L58.6506 24.3045C58.977 24.1749 59.3007 24.1431 59.6217 24.2091C59.9397 24.2671 60.2549 24.446 60.5675 24.7457L62.8709 27.0652L61.6412 27.5536L59.3831 25.2438C59.1118 24.9553 58.8243 24.8115 58.5206 24.8123C58.2248 24.81 57.8819 24.8863 57.4919 25.0412L55.7369 25.7382L57.1642 29.3318L56.0539 29.7728ZM55.3955 24.8786L57.6042 24.0014C58.217 23.758 58.6305 23.4417 58.8445 23.0526C59.0665 22.6604 59.078 22.2135 58.8788 21.7121C58.6828 21.2186 58.3711 20.9094 57.9436 20.7843C57.5209 20.6481 57.0031 20.7017 56.3903 20.9451L54.1816 21.8223L55.3955 24.8786Z" fill="#FCFCFC"/>
<path d="M67.2572 25.9507L65.6936 17.0303L71.4634 16.019L71.6319 16.9806L67.0009 17.7923L67.5177 20.7405L71.8577 19.9798L72.0262 20.9414L67.6863 21.7021L68.2274 24.7895L72.8584 23.9777L73.027 24.9394L67.2572 25.9507Z" fill="#FCFCFC"/>
<path d="M83.6597 24.6216L89.0734 16.3286L90.1004 16.4961L92.6613 26.09L91.4442 25.8915L90.7548 23.1758L91.2123 23.5629L85.7733 22.6756L86.3808 22.4623L84.8641 24.818L83.6597 24.6216ZM89.3528 17.7278L86.6097 22.0962L86.3489 21.7803L90.9511 22.531L90.6668 22.758L89.4035 17.7361L89.3528 17.7278Z" fill="#FCFCFC"/>
<path d="M96.753 27.3367L100.188 18.9569L101.043 19.3077L103.452 28.4026L103.167 28.2857L106.012 21.344L107.046 21.7679L103.611 30.1477L102.767 29.8018L100.359 20.7069L100.632 20.819L97.7871 27.7606L96.753 27.3367Z" fill="#FCFCFC"/>
<path d="M108.042 32.5814L113.276 25.1909L115.781 26.9654C116.606 27.5495 117.2 28.1853 117.563 28.8728C117.933 29.5652 118.07 30.2914 117.972 31.0514C117.879 31.8044 117.554 32.5757 116.994 33.3655C116.435 34.1552 115.813 34.7221 115.128 35.0663C114.444 35.4106 113.714 35.523 112.938 35.4036C112.169 35.2892 111.372 34.94 110.547 34.3559L108.042 32.5814ZM109.603 32.4438L111.06 33.4758C112.046 34.1737 112.944 34.4534 113.756 34.3147C114.568 34.1761 115.315 33.6245 115.998 32.6601C116.681 31.6957 116.951 30.811 116.808 30.0062C116.669 29.1944 116.107 28.4395 115.122 27.7416L113.664 26.7096L109.603 32.4438Z" fill="#FCFCFC"/>
<path d="M122.416 45.3892L129.79 40.1321L133.19 44.9019L132.395 45.4687L129.666 41.6402L127.229 43.3777L129.787 46.9655L128.992 47.5322L126.434 43.9444L123.882 45.7639L126.611 49.5923L125.816 50.159L122.416 45.3892Z" fill="#FCFCFC"/>
<path d="M128.186 54.2267L136.495 50.6243L136.863 51.4728L132.239 59.6663L132.116 59.3835L138.999 56.3994L139.444 57.4247L131.135 61.0271L130.772 60.1903L135.396 51.9968L135.514 52.2679L128.631 55.252L128.186 54.2267Z" fill="#FCFCFC"/>
<path d="M132.991 68.0201L140.883 66.4763L140.281 63.4002L141.277 63.2054L142.715 70.5552L141.719 70.7501L141.115 67.6613L133.223 69.2052L132.991 68.0201Z" fill="#FCFCFC"/>
<path d="M134.197 76.9781L143.253 77.0296L143.22 82.8872L142.244 82.8817L142.27 78.1802L139.277 78.1632L139.252 82.5692L138.276 82.5637L138.301 78.1576L135.167 78.1398L135.14 82.8413L134.164 82.8358L134.197 76.9781Z" fill="#FCFCFC"/>
<path d="M133.684 87.5272L142.541 89.4171L141.758 93.0856C141.556 94.032 141.179 94.7133 140.626 95.1295C140.071 95.554 139.396 95.6814 138.6 95.5116C138.073 95.399 137.65 95.1862 137.331 94.873C137.013 94.5599 136.803 94.1692 136.701 93.7009C136.598 93.2411 136.606 92.7306 136.726 92.1694L136.856 92.4205L136.792 92.722C136.719 93.0654 136.566 93.3523 136.332 93.5828C136.108 93.8151 135.784 93.9781 135.361 94.0717L132.153 94.7008L132.43 93.4068L135.604 92.8101C135.995 92.7445 136.274 92.5852 136.442 92.332C136.608 92.0873 136.735 91.7597 136.822 91.3493L137.216 89.5025L133.435 88.6956L133.684 87.5272ZM138.121 89.6955L137.625 92.0197C137.487 92.6646 137.521 93.184 137.726 93.578C137.929 93.9804 138.294 94.2379 138.822 94.3505C139.341 94.4613 139.772 94.3736 140.113 94.0874C140.461 93.8113 140.703 93.3509 140.841 92.7059L141.337 90.3818L138.121 89.6955Z" fill="#FCFCFC"/>
<path d="M126.702 107.058L133.577 111.23L135.203 108.551L136.07 109.077L132.185 115.48L131.317 114.953L132.95 112.263L126.076 108.091L126.702 107.058Z" fill="#FCFCFC"/>
<path d="M121.646 114.518L128.166 120.803L127.337 121.663L124.489 118.917L120.833 122.709L123.682 125.455L122.844 126.324L116.324 120.039L117.162 119.17L120.103 122.005L123.758 118.213L120.817 115.378L121.646 114.518Z" fill="#FCFCFC"/>
<path d="M112.077 123.461L117.099 130.998L112.225 134.246L111.683 133.434L115.596 130.826L113.936 128.336L110.269 130.779L109.728 129.967L113.394 127.523L111.656 124.915L107.744 127.522L107.202 126.71L112.077 123.461Z" fill="#FCFCFC"/>
<path d="M97.6927 131.23L95.4058 136.856L95.2877 136.409L99.857 140.025L98.4908 140.386L94.8244 137.422L95.1846 137.327L93.498 141.705L92.1194 142.069L94.3065 136.668L94.4246 137.115L89.6571 133.353L91.0357 132.988L94.9226 136.134L94.4879 136.248L96.3265 131.591L97.6927 131.23Z" fill="#FCFCFC"/>
<path d="M82.1226 133.996C82.8497 133.961 83.5086 134.023 84.0994 134.184C84.6901 134.344 85.2075 134.585 85.6517 134.906L85.2868 135.876C84.9767 135.668 84.664 135.494 84.3486 135.355C84.0337 135.224 83.699 135.129 83.3446 135.069C82.982 135.018 82.5911 135.002 82.172 135.022C81.4278 135.058 80.8867 135.217 80.5487 135.499C80.2026 135.79 80.0403 136.158 80.0617 136.603C80.0802 136.988 80.2184 137.277 80.4764 137.47C80.7343 137.664 81.1741 137.805 81.7958 137.896L83.1823 138.112C84.0203 138.243 84.6538 138.491 85.0829 138.856C85.5039 139.23 85.7304 139.751 85.7625 140.418C85.7884 140.957 85.6699 141.435 85.407 141.85C85.1359 142.275 84.7534 142.61 84.2594 142.857C83.7568 143.104 83.1634 143.244 82.4791 143.277C81.8461 143.308 81.2556 143.242 80.7076 143.079C80.1597 142.917 79.6929 142.661 79.3074 142.311L79.6742 141.38C80.076 141.712 80.503 141.945 80.9552 142.077C81.3993 142.219 81.8993 142.276 82.4554 142.249C83.1311 142.217 83.6588 142.046 84.0383 141.736C84.4177 141.426 84.5956 141.023 84.5717 140.527C84.5528 140.134 84.4137 139.827 84.1545 139.608C83.8958 139.398 83.4769 139.247 82.8981 139.154L81.5122 138.951C80.6314 138.822 79.9812 138.583 79.5614 138.235C79.1332 137.886 78.9034 137.387 78.8721 136.737C78.8474 136.224 78.9625 135.764 79.2173 135.357C79.4725 134.959 79.8473 134.641 80.3417 134.403C80.8361 134.165 81.4297 134.029 82.1226 133.996Z" fill="#FCFCFC"/>
<path d="M71.7739 133.65L70.5207 141.593L73.6168 142.081L73.4586 143.084L66.0609 141.917L66.2191 140.914L69.3279 141.405L70.5811 133.461L71.7739 133.65Z" fill="#FCFCFC"/>
<path d="M62.951 131.753L59.7039 140.208L56.2023 138.863C55.2989 138.516 54.6848 138.037 54.3598 137.426C54.0269 136.812 54.0063 136.125 54.298 135.365C54.4914 134.862 54.7676 134.477 55.1266 134.211C55.4855 133.945 55.9042 133.799 56.3825 133.772C56.8529 133.741 57.3559 133.829 57.8915 134.035L57.6232 134.124L57.3354 134.014C57.0076 133.888 56.748 133.692 56.5567 133.426C56.3623 133.168 56.2517 132.822 56.2251 132.39L56.1037 129.123L57.3388 129.598L57.4335 132.827C57.4374 133.223 57.5512 133.523 57.7752 133.729C57.9911 133.931 58.2949 134.107 58.6866 134.258L60.4494 134.935L61.8358 131.325L62.951 131.753ZM60.1178 135.798L57.8993 134.946C57.2837 134.71 56.7654 134.662 56.3443 134.803C55.9152 134.941 55.6039 135.262 55.4104 135.765C55.2201 136.261 55.2396 136.7 55.4692 137.081C55.6876 137.468 56.1046 137.779 56.7202 138.016L58.9387 138.868L60.1178 135.798Z" fill="#FCFCFC"/>
<path d="M52.8876 127.546L44.5277 132.855L43.6621 132.278L45.3003 122.484L46.3262 123.169L45.8302 125.926L45.5738 125.384L50.1583 128.443L49.517 128.385L51.8724 126.868L52.8876 127.546ZM44.8523 131.466L49.1571 128.624L49.2638 129.02L45.3847 126.432L45.7374 126.343L44.8096 131.437L44.8523 131.466Z" fill="#FCFCFC"/>
<path d="M40.5994 118.051L34.8072 123.63L36.9815 125.887L36.2505 126.591L31.0554 121.197L31.7864 120.493L33.9696 122.76L39.7617 117.182L40.5994 118.051Z" fill="#FCFCFC"/>
<path d="M34.7267 111.181L27.091 116.051L23.9412 111.112L24.7643 110.587L27.2925 114.551L29.816 112.941L27.4468 109.226L28.2699 108.701L30.6392 112.416L33.2819 110.731L30.7537 106.767L31.5769 106.242L34.7267 111.181Z" fill="#FCFCFC"/>
<path d="M28.057 98.0813C28.4047 99.0119 28.5244 99.8586 28.4161 100.621C28.2999 101.387 27.9768 102.051 27.4469 102.615C26.9139 103.171 26.1982 103.616 25.2997 103.952C24.4011 104.288 23.564 104.408 22.7884 104.314C22.0127 104.22 21.3314 103.926 20.7447 103.432C20.155 102.93 19.6953 102.238 19.3656 101.355C19.1349 100.738 19.0223 100.167 19.028 99.644C19.0337 99.1208 19.1376 98.6158 19.3396 98.1289L20.3875 98.2174C20.2587 98.5581 20.1711 98.8742 20.1247 99.1658C20.0782 99.4574 20.0763 99.7461 20.1191 100.032C20.1508 100.313 20.2326 100.629 20.3644 100.982C20.733 101.969 21.3076 102.614 22.088 102.917C22.8684 103.219 23.7962 103.17 24.8712 102.768C25.9622 102.361 26.6982 101.798 27.079 101.08C27.4597 100.361 27.4509 99.4688 27.0523 98.4018C26.9114 98.0247 26.7375 97.6692 26.5304 97.3351C26.3234 97.0011 26.0902 96.6951 25.8309 96.4171L26.4819 96.4345L23.6059 97.5088L24.4015 99.6388L23.5351 99.9625L22.3798 96.8698L26.351 95.3864C26.6703 95.6785 26.9851 96.0683 27.2952 96.5558C27.6053 97.0433 27.8592 97.5518 28.057 98.0813Z" fill="#FCFCFC"/>
<path d="M25.3249 87.9835L21.1282 88.5817L21.8677 88.2168L16.8559 92.7461L16.6601 91.3726L20.6252 87.8748L20.6669 88.1673L15.8824 85.9168L15.6921 84.5815L21.7698 87.53L20.9596 87.399L25.1564 86.8007L25.3249 87.9835Z" fill="#FCFCFC"/>
<defs>
<filter id="filter0_b_22_233" x="-15" y="-15" width="188.963" height="188.963" filterUnits="userSpaceOnUse" color-interpolation-filters="sRGB">
<feFlood flood-opacity="0" result="BackgroundImageFix"/>
<feGaussianBlur in="BackgroundImageFix" stdDeviation="7.5"/>
<feComposite in2="SourceAlpha" operator="in" result="effect1_backgroundBlur_22_233"/>
<feBlend mode="normal" in="SourceGraphic" in2="effect1_backgroundBlur_22_233" result="shape"/>
</filter>
<radialGradient id="paint0_diamond_22_233" cx="0" cy="0" r="1" gradientUnits="userSpaceOnUse" gradientTransform="translate(79.4814 79.4815) rotate(153.2) scale(402.062)">
<stop stop-color="#D41C25"/>
<stop offset="1" stop-color="#D41C25" stop-opacity="0"/>
</radialGradient>
</defs>
</svg>
