<svg width="81" height="81" viewBox="0 0 81 81" fill="none" xmlns="http://www.w3.org/2000/svg">
<circle opacity="0.5" cx="40.1382" cy="40.5372" r="40" fill="#01DAE9"/>
<circle cx="40.1382" cy="40.5372" r="32.5" fill="#01DAE9"/>
<path d="M49.1382 30.5372H47.1382V29.5372C47.1382 27.883 45.7924 26.5372 44.1382 26.5372H36.1382C34.484 26.5372 33.1382 27.883 33.1382 29.5372V30.5372H31.1382C28.3813 30.5372 26.1382 32.7803 26.1382 35.5372V49.5372C26.1382 52.2941 28.3813 54.5372 31.1382 54.5372H49.1382C51.8951 54.5372 54.1382 52.2941 54.1382 49.5372V35.5372C54.1382 32.7803 51.8951 30.5372 49.1382 30.5372ZM35.1382 29.5372C35.1382 28.9859 35.5868 28.5372 36.1382 28.5372H44.1382C44.6895 28.5372 45.1382 28.9859 45.1382 29.5372V30.5372H35.1382V29.5372ZM42.1382 51.5372C42.1382 52.6417 41.2426 53.5372 40.1382 53.5372H30.1382C29.0337 53.5372 28.1382 52.6417 28.1382 51.5372V33.5372C28.1382 32.4325 29.0337 31.5372 30.1382 31.5372H40.1382C41.2426 31.5372 42.1382 32.4325 42.1382 33.5372V51.5372ZM52.1382 36.7732C52.1382 37.8543 51.5274 38.8424 50.5605 39.3259L50.1382 39.5371V45.5371L50.5605 45.7482C51.5275 46.2317 52.1382 47.2199 52.1382 48.3009C52.1382 49.6712 51.3638 50.9241 50.1382 51.5371V49.5371L49.1382 48.5371H47.1382L46.1382 49.5371V51.5371C44.9125 50.9241 44.1382 49.6715 44.1382 48.3009C44.1382 47.2199 44.7489 46.2315 45.7158 45.748L46.1382 45.5371V39.5371L45.7158 39.3259C44.7489 38.8424 44.1382 37.8543 44.1382 36.7732C44.1382 35.4027 44.9125 34.15 46.1382 33.5371V35.5371L47.1382 36.5371H49.1382L50.1382 35.5371V33.5371C51.3638 34.15 52.1382 35.4027 52.1382 36.773V36.7732Z" fill="white"/>
<path d="M40.1382 32.5372H37.1382C37.1382 33.6417 36.2426 34.5372 35.1382 34.5372C34.0337 34.5372 33.1382 33.6417 33.1382 32.5372H30.1382C29.5859 32.5372 29.1382 32.985 29.1382 33.5372V51.5372C29.1382 52.0895 29.5859 52.5372 30.1382 52.5372H40.1382C40.6904 52.5372 41.1382 52.0895 41.1382 51.5372V33.5372C41.1382 32.985 40.6904 32.5372 40.1382 32.5372ZM32.9919 44.6852C33.1872 44.8805 33.1872 45.1971 32.9919 45.3924C32.8941 45.4899 32.7662 45.5386 32.6383 45.5386C32.5104 45.5386 32.3825 45.4897 32.2848 45.3922L30.2848 43.3922C30.0894 43.1968 30.0894 42.8803 30.2848 42.685L32.2848 40.685C32.4801 40.4897 32.7966 40.4897 32.9919 40.685C33.1872 40.8803 33.1872 41.1968 32.9919 41.3922L31.3455 43.0386L32.9919 44.6852ZM36.1232 41.1598L35.1232 45.1598C35.0665 45.3873 34.8629 45.5388 34.6388 45.5388C34.5988 45.5388 34.5577 45.5339 34.5171 45.5236C34.249 45.4567 34.0859 45.1852 34.1533 44.9176L35.1533 40.9176C35.2198 40.6491 35.4917 40.483 35.7593 40.5538C36.0276 40.6208 36.1905 40.8922 36.1231 41.1598L36.1232 41.1598ZM39.9919 43.3921L37.9919 45.3921C37.8941 45.4899 37.7662 45.5386 37.6383 45.5386C37.5104 45.5386 37.3825 45.4897 37.2848 45.3921C37.0894 45.1968 37.0894 44.8803 37.2848 44.685L38.9312 43.0386L37.2848 41.3922C37.0894 41.1969 37.0894 40.8804 37.2848 40.6851C37.4801 40.4897 37.7966 40.4897 37.9919 40.6851L39.9919 42.6851C40.1872 42.8806 40.1872 43.1969 39.9919 43.3922V43.3921Z" fill="white"/>
</svg>
