<svg width="81" height="81" viewBox="0 0 81 81" fill="none" xmlns="http://www.w3.org/2000/svg">
<circle opacity="0.5" cx="40.1382" cy="40.5372" r="40" fill="#1D6AF2"/>
<circle cx="40.1382" cy="40.5372" r="32.5" fill="#1D6AF2"/>
<path fill-rule="evenodd" clip-rule="evenodd" d="M33.9018 41.0849C33.6871 41.0246 33.5617 40.8017 33.6219 40.5869C33.6822 40.372 33.9052 40.2467 34.1201 40.307L39.7521 41.9028C40.1231 42.0086 40.5208 41.9651 40.8604 41.7816C41.1939 41.6026 41.4421 41.2979 41.5499 40.9352C41.5626 40.8919 41.5735 40.8488 41.5818 40.8053C41.5818 40.7988 41.584 40.7928 41.5854 40.7863V40.7865C41.6487 40.437 41.5813 40.0765 41.3961 39.7735C41.2106 39.4706 40.9202 39.2465 40.5802 39.1438C38.976 38.6664 37.3999 38.0997 35.859 37.4458C33.043 36.2827 32.8689 36.2113 27.271 39.1737C28.5028 40.9295 29.7146 42.7079 30.9324 44.475L31.0217 44.3413L31.0306 44.3268V44.327C31.1677 44.1181 31.3692 43.9599 31.6045 43.8759C31.8398 43.7922 32.0962 43.7875 32.3344 43.8628L39.0264 45.9357C40.8581 46.5031 45.0401 43.4096 47.8864 41.304C48.6938 40.7065 49.398 40.186 49.9137 39.8478C50.4067 39.5243 50.5789 39.1717 50.5304 38.8558H50.5302C50.498 38.6793 50.419 38.5145 50.3014 38.3791C50.1485 38.1998 49.9632 38.0509 49.7554 37.94C49.3255 37.7096 48.8411 37.6003 48.3541 37.6235C47.8668 37.6465 47.3952 37.8012 46.9889 38.071L42.3373 41.1215L42.3248 41.1657V41.1654C42.1554 41.7342 41.7661 42.2118 41.2431 42.4922C40.7199 42.7755 40.1065 42.8429 39.534 42.6802L33.9018 41.0849ZM28.3166 46.2856C28.4445 46.468 28.4003 46.7197 28.2179 46.8476C28.0353 46.9755 27.7838 46.9313 27.6559 46.749L27.6291 46.7108H27.6289C27.5014 46.5282 27.546 46.2769 27.7286 46.1494C27.9112 46.022 28.1626 46.0666 28.29 46.2492L28.3166 46.2874L28.3166 46.2856ZM40.5777 30.4479C40.5777 30.2244 40.759 30.0432 40.9826 30.0432C41.2061 30.0432 41.3873 30.2244 41.3873 30.4479V30.8271C41.4788 30.8461 41.5688 30.872 41.6565 30.9044C41.9654 31.0059 42.2333 31.2044 42.4203 31.4704C42.6076 31.7365 42.7038 32.0557 42.6951 32.3807C42.6951 32.6044 42.5139 32.7856 42.2904 32.7856C42.0668 32.7856 41.8855 32.6044 41.8855 32.3807C41.8936 32.0559 41.6873 31.7642 41.3784 31.6633C41.1224 31.5724 40.8429 31.5724 40.5867 31.6633C40.2777 31.7642 40.0715 32.0557 40.0793 32.3807C40.0793 32.9696 40.5724 33.0773 41.0655 33.1849C41.88 33.3626 42.6952 33.5405 42.6952 34.7869V34.7867C42.7041 35.1119 42.6077 35.4311 42.4206 35.6972C42.2336 35.9633 41.9655 36.1617 41.6566 36.2633C41.5688 36.2957 41.4789 36.3213 41.3874 36.3405V36.7198V36.7195C41.3874 36.9432 41.2061 37.1245 40.9827 37.1245C40.759 37.1245 40.5778 36.9432 40.5778 36.7195V36.3405C40.4863 36.3213 40.3961 36.2957 40.3084 36.2633C39.9994 36.1617 39.7313 35.9633 39.5443 35.6972C39.3573 35.4312 39.2608 35.112 39.2698 34.7867C39.2698 34.5633 39.451 34.382 39.6744 34.382C39.8981 34.382 40.0794 34.5633 40.0794 34.7867C40.0713 35.1115 40.2771 35.403 40.5858 35.5044C40.8419 35.5952 41.1215 35.5952 41.3775 35.5044C41.6865 35.4033 41.8925 35.1117 41.8847 34.7867C41.8847 34.1916 41.3889 34.0827 40.8927 33.9756C40.0796 33.7979 39.2675 33.6211 39.2675 32.3807C39.2588 32.0557 39.355 31.7365 39.5423 31.4704C39.7294 31.2044 39.9972 31.0059 40.3061 30.9044C40.3939 30.872 40.484 30.8461 40.5756 30.8271V30.4479L40.5777 30.4479ZM38.1697 37.4164C36.9429 36.5174 36.2201 35.0854 36.2255 33.5644C36.2306 32.0432 36.9632 30.6164 38.1962 29.7256C39.4293 28.8347 41.0139 28.5876 42.4596 29.0604C43.9054 29.5334 45.0377 30.6693 45.506 32.1164C45.9743 33.5637 45.7221 35.1476 44.8274 36.3778C43.9328 37.6079 42.5035 38.336 40.9826 38.3364C40.9261 38.3364 40.8703 38.3483 40.8187 38.371L40.8111 38.3688C39.8221 38.0744 38.9895 37.7929 38.2759 37.5311H38.2757C38.248 37.4865 38.2123 37.4478 38.1701 37.4168L38.1697 37.4164ZM45.8222 37.8682L42.3812 40.1249C42.3097 39.7372 42.1387 39.3747 41.8847 39.0731C43.4899 38.8113 44.9003 37.8613 45.7461 36.4725C46.5921 35.0834 46.7887 33.3941 46.2847 31.8481C45.7807 30.3019 44.6264 29.053 43.1244 28.4294C41.6227 27.8057 39.9231 27.8693 38.4722 28.6037C37.0211 29.3381 35.9635 30.6698 35.5767 32.2492C35.1896 33.829 35.5124 35.4986 36.4597 36.8204L36.1657 36.6992C35.7706 36.5356 35.4217 36.3917 35.1027 36.2711L35.1025 36.2709C34.9215 35.8763 34.7811 35.4642 34.6833 35.0412C34.1731 32.8434 34.8451 30.5385 36.4567 28.9595C38.0683 27.3802 40.3865 26.7555 42.5733 27.3104C44.7602 27.8655 46.4999 29.5202 47.1635 31.6767C47.8269 33.8331 47.3186 36.1796 45.822 37.8681L45.8222 37.8682ZM42.7138 45.7322C44.3894 44.7901 45.9979 43.7335 47.5281 42.5699C47.6265 42.6653 47.7131 42.772 47.7861 42.8878C47.8785 43.03 47.9296 43.1947 47.9343 43.3641C47.9343 43.9628 47.2622 44.5383 46.1743 44.9847C45.0656 45.4085 43.8988 45.6608 42.7137 45.7322L42.7138 45.7322ZM47.9343 47.4532C47.9343 48.0525 47.2622 48.6286 46.1742 49.0753C44.67 49.6322 43.0742 49.9017 41.4705 49.8697C39.8665 49.9016 38.2707 49.6322 36.7665 49.0753C35.6785 48.6273 35.0064 48.0512 35.0064 47.4532V45.5331L38.787 46.7041H38.7868C39.4722 46.8585 40.1883 46.8041 40.8426 46.5476V46.5815C40.9392 46.5849 41.0444 46.5878 41.1578 46.5898C41.3178 46.5927 41.422 46.5942 41.4707 46.5942C43.1796 46.625 44.8792 46.334 46.4805 45.7362C47.0069 45.5315 47.4975 45.2444 47.9337 44.886V47.4532L47.9343 47.4532ZM47.9343 51.5441V48.9713C47.4979 49.3298 47.0073 49.6166 46.4809 49.8211C44.8796 50.4189 43.1802 50.7099 41.4713 50.6791C39.7624 50.7097 38.063 50.4189 36.4617 49.8211C35.9352 49.6164 35.4448 49.3296 35.0081 48.9709V51.5436C35.0081 52.1429 35.6802 52.7186 36.7682 53.1653V53.1655C38.2726 53.7226 39.8682 53.9923 41.4722 53.9603C43.0762 53.9923 44.6717 53.7226 46.1762 53.1655C47.2641 52.7175 47.9362 52.1414 47.9362 51.5438L47.9343 51.5441ZM21.8 41.3309C21.7473 41.2544 21.7272 41.1602 21.7438 41.0689C21.7596 40.978 21.8112 40.8972 21.8871 40.8448L25.3219 38.466C25.3375 38.4561 25.3524 38.4456 25.3667 38.4338C25.4399 38.3901 25.5263 38.3744 25.6103 38.3896C25.6933 38.4046 25.7681 38.4492 25.8205 38.5155C25.8301 38.5309 25.8408 38.5459 25.8524 38.5599C27.4355 40.8466 29.0185 43.1327 30.602 45.4182L30.6087 45.4276L30.9178 45.8736V45.8738C31.0272 46.0318 30.9884 46.2488 30.8308 46.3591L27.3716 48.7568C27.2951 48.8095 27.2009 48.8298 27.1094 48.8133C27.0187 48.7972 26.9379 48.7457 26.8855 48.6698L21.8 41.3309Z" fill="white"/>
</svg>
