<svg width="81" height="81" viewBox="0 0 81 81" fill="none" xmlns="http://www.w3.org/2000/svg">
<circle opacity="0.5" cx="40.1382" cy="40.5372" r="40" fill="#AF31FC"/>
<circle cx="40.1382" cy="40.5372" r="32.5" fill="#AF31FC"/>
<path d="M39.7197 29.6595C33.4847 29.6595 28.4151 34.7289 28.4151 40.9642C28.4151 47.1994 33.4845 52.2688 39.7197 52.2688C45.9549 52.2688 51.0244 47.1994 51.0244 40.9642C51.0244 34.7289 45.9549 29.6595 39.7197 29.6595V29.6595ZM30.8224 41.6008H30.364C30.0137 41.6008 29.7272 41.3143 29.7272 40.964C29.7272 40.6138 30.0137 40.3272 30.364 40.3272H30.8224C31.1727 40.3272 31.4592 40.6138 31.4592 40.964C31.4592 41.3143 31.1727 41.6008 30.8224 41.6008ZM33.8795 47.7085L33.5545 48.0334C33.4271 48.1544 33.268 48.2181 33.1025 48.2181C32.937 48.2181 32.7776 48.1544 32.6504 48.0334C32.402 47.785 32.402 47.3838 32.6504 47.1354L32.9753 46.8105C33.2238 46.5621 33.6249 46.5621 33.8733 46.8105C34.1279 47.0589 34.1279 47.4601 33.8795 47.7085H33.8795ZM33.8795 35.1237C33.7521 35.2511 33.5929 35.3084 33.4274 35.3084C33.2619 35.3084 33.1025 35.2447 32.9753 35.1237L32.6504 34.7988C32.402 34.5504 32.402 34.1492 32.6504 33.9008C32.8988 33.6524 33.3 33.6524 33.5484 33.9008L33.8733 34.2257C34.1279 34.4741 34.1279 34.8753 33.8795 35.1237H33.8795ZM40.3563 50.3192C40.3563 50.6694 40.0698 50.956 39.7195 50.956C39.3693 50.956 39.0827 50.6694 39.0827 50.3192V49.8607C39.0827 49.5105 39.3693 49.2239 39.7195 49.2239C40.0698 49.2239 40.3563 49.5105 40.3563 49.8607V50.3192ZM40.3563 40.9633C40.3563 41.1353 40.2862 41.2944 40.1716 41.4154L38.5222 43.0648C38.3948 43.1922 38.2356 43.2495 38.0701 43.2495C37.9046 43.2495 37.7452 43.1858 37.6181 43.0648C37.3696 42.8164 37.3696 42.4152 37.6181 42.1668L39.0827 40.7021V34.9959C39.0827 34.6456 39.3693 34.3591 39.7195 34.3591C40.0698 34.3591 40.3563 34.6456 40.3563 34.9959V40.9633ZM40.3563 32.066C40.3563 32.4163 40.0698 32.7028 39.7195 32.7028C39.3693 32.7028 39.0827 32.4163 39.0827 32.066V31.6076C39.0827 31.2573 39.3693 30.9708 39.7195 30.9708C40.0698 30.9708 40.3563 31.2573 40.3563 31.6076V32.066ZM46.7825 48.0326C46.6551 48.1536 46.496 48.2173 46.3304 48.2173C46.1649 48.2173 46.0055 48.1536 45.8784 48.0326L45.5535 47.7077C45.305 47.4593 45.305 47.0581 45.5535 46.8097C45.8019 46.5613 46.203 46.5613 46.4514 46.8097L46.7764 47.1346C47.0309 47.3766 47.0309 47.7842 46.7825 48.0326H46.7825ZM46.7825 34.7982L46.4576 35.1231C46.3302 35.2505 46.171 35.3078 46.0055 35.3078C45.84 35.3078 45.6806 35.2441 45.5535 35.1231C45.305 34.8747 45.305 34.4736 45.5535 34.2251L45.8784 33.9002C46.1268 33.6518 46.5279 33.6518 46.7764 33.9002C47.0309 34.1486 47.0309 34.5498 46.7825 34.7982H46.7825ZM48.6166 40.3264H49.0751C49.4253 40.3264 49.7119 40.613 49.7119 40.9632C49.7119 41.3134 49.4253 41.6 49.0751 41.6H48.6166C48.2664 41.6 47.9798 41.3134 47.9798 40.9632C47.9798 40.613 48.26 40.3264 48.6166 40.3264Z" fill="white"/>
<path d="M39.7197 25.0425C30.9371 25.0425 23.7982 32.1882 23.7982 40.964C23.7982 49.7467 30.9371 56.8855 39.7197 56.8855C48.4956 56.8855 55.6413 49.7467 55.6413 40.964C55.6413 32.1882 48.4956 25.0425 39.7197 25.0425V25.0425ZM39.7197 53.542C32.7842 53.542 27.1418 47.8995 27.1418 40.964C27.1418 34.0286 32.7843 28.386 39.7197 28.386C46.6552 28.386 52.2977 34.0286 52.2977 40.964C52.2977 47.8995 46.6552 53.542 39.7197 53.542V53.542Z" fill="white"/>
</svg>
