<svg width="81" height="81" viewBox="0 0 81 81" fill="none" xmlns="http://www.w3.org/2000/svg">
<circle opacity="0.5" cx="40.1382" cy="40.5372" r="40" fill="#FF46EC"/>
<circle cx="40.1382" cy="40.5372" r="32.5" fill="#FF46EC"/>
<path d="M40.0004 33.9475C38.1394 33.9475 36.3547 34.6867 35.0389 36.0026C33.723 37.3185 32.9837 39.1032 32.9837 40.9641C32.9837 42.8251 33.7229 44.6098 35.0389 45.9256C36.3548 47.2415 38.1394 47.9808 40.0004 47.9808C41.8613 47.9808 43.646 47.2416 44.9619 45.9256C46.2777 44.6097 47.017 42.8251 47.017 40.9641C47.0152 39.1037 46.2754 37.3201 44.9598 36.0047C43.6444 34.689 41.8608 33.9493 40.0004 33.9475ZM37.6615 36.9154C38.1149 36.9154 38.5498 37.0956 38.8704 37.4164C39.1912 37.7369 39.3713 38.1718 39.3713 38.6252C39.3713 39.0787 39.1912 39.5136 38.8704 39.8341C38.5498 40.1549 38.1149 40.335 37.6615 40.335C37.2081 40.335 36.7732 40.1549 36.4526 39.8341C36.1318 39.5136 35.9517 39.0787 35.9517 38.6252C35.9519 38.1718 36.1323 37.7372 36.4529 37.4166C36.7734 37.0961 37.2081 36.9157 37.6615 36.9155L37.6615 36.9154ZM42.3393 45.0127C41.8858 45.0127 41.4509 44.8326 41.1304 44.5117C40.8096 44.1912 40.6295 43.7563 40.6295 43.3029C40.6295 42.8495 40.8096 42.4146 41.1304 42.094C41.4509 41.7732 41.8858 41.5931 42.3393 41.5931C42.7927 41.5931 43.2276 41.7732 43.5481 42.094C43.8689 42.4146 44.0491 42.8495 44.0491 43.3029C44.0488 43.7563 43.8684 44.1909 43.5479 44.5115C43.2273 44.832 42.7927 45.0124 42.3393 45.0127L42.3393 45.0127ZM43.7285 38.8895L37.9256 44.6924V44.6921C37.7079 44.9179 37.4085 45.0464 37.0947 45.0492C36.781 45.0518 36.4795 44.9284 36.2576 44.7067C36.036 44.4849 35.9125 44.1834 35.9151 43.8696C35.918 43.5559 36.0464 43.2564 36.2722 43.0387L42.0751 37.2359C42.2928 37.0101 42.5922 36.8816 42.906 36.8788C43.2198 36.8762 43.5213 36.9996 43.7431 37.2212C43.9647 37.4431 44.0882 37.7446 44.0856 38.0584C44.0827 38.3721 43.9543 38.6715 43.7285 38.8893V38.8895Z" fill="white"/>
<path d="M53.5038 38.3619C53.1999 38.133 52.9248 37.8678 52.6852 37.5726C52.7327 37.1693 52.8394 36.7754 53.002 36.4032C53.5079 35.4653 53.5701 34.3509 53.1715 33.3626C52.5092 32.5163 51.5045 32.0091 50.4303 31.9791C50.039 31.9337 49.6552 31.8374 49.289 31.6928C49.1361 31.3242 49.0358 30.936 48.9907 30.5395C48.9596 29.464 48.4501 28.4585 47.6014 27.7973C46.6137 27.3974 45.4988 27.4585 44.5609 27.9644C44.1923 28.1246 43.8036 28.2335 43.4055 28.2883C43.0999 28.05 42.8276 27.7715 42.5964 27.4603C42.0278 26.5349 41.0755 25.9118 40.0001 25.7612C38.9222 25.9102 37.9679 26.5336 37.398 27.4603C37.1686 27.7644 36.9034 28.0393 36.6076 28.2789C36.2038 28.2332 35.8094 28.1259 35.4382 27.961C34.5 27.4551 33.3853 27.3937 32.3976 27.7936C31.5505 28.4564 31.0429 29.4622 31.0128 30.5371C30.9671 30.9284 30.8708 31.3122 30.7264 31.6787C30.3578 31.8316 29.9697 31.9321 29.5731 31.9768C28.4987 32.0078 27.494 32.5158 26.832 33.3626C26.4334 34.3509 26.4955 35.4652 27.0016 36.4031C27.1598 36.7715 27.2687 37.1593 27.3256 37.5561C27.087 37.8623 26.808 38.1351 26.4963 38.3667C25.5706 38.9355 24.9475 39.888 24.7972 40.964C24.9465 42.0415 25.5698 42.9959 26.4963 43.566C26.8001 43.795 27.0753 44.0602 27.3149 44.3554C27.2674 44.7587 27.1606 45.1526 26.998 45.5248C26.4921 46.4627 26.43 47.5771 26.8286 48.5654C27.4908 49.4116 28.4955 49.9188 29.5698 49.9488C29.9611 49.9943 30.3448 50.0906 30.711 50.2352C30.864 50.6038 30.9642 50.9919 31.0094 51.3885C31.0404 52.464 31.55 53.4695 32.3986 54.1307C33.3863 54.5314 34.5013 54.47 35.4392 53.9636C35.808 53.8038 36.1967 53.6947 36.5945 53.6396C36.9002 53.878 37.1724 54.1565 37.4037 54.4677C37.9722 55.3931 38.9245 56.0162 40 56.1668C41.0778 56.0177 42.0322 55.3943 42.602 54.4677C42.8315 54.1636 43.0967 53.8887 43.3924 53.6491C43.7963 53.695 44.1907 53.8023 44.5619 53.967C45.5001 54.4729 46.6147 54.5342 47.6024 54.1343C48.4482 53.4721 48.9554 52.4678 48.9859 51.3942C49.0319 51.0029 49.1282 50.6195 49.2726 50.253C49.6409 50.0998 50.029 49.9995 50.4256 49.9546C51.5011 49.9233 52.5066 49.4138 53.168 48.5654C53.5666 47.5771 53.5045 46.4627 52.9983 45.5248C52.8401 45.1565 52.7313 44.7686 52.6744 44.3718C52.913 44.0656 53.192 43.7928 53.5037 43.5613C54.4294 42.9925 55.0524 42.04 55.2028 40.964C55.0535 39.8864 54.4302 38.9321 53.5037 38.362L53.5038 38.3619ZM40.0004 50.3197C37.5192 50.3197 35.1396 49.334 33.3849 47.5796C31.6305 45.8249 30.6448 43.4453 30.6448 40.9641C30.6448 38.483 31.6305 36.1034 33.3849 34.3487C35.1396 32.5942 37.5192 31.6086 40.0004 31.6086C42.4815 31.6086 44.8611 32.5942 46.6158 34.3487C48.3702 36.1034 49.3559 38.483 49.3559 40.9641C49.353 43.4445 48.3666 45.8225 46.6127 47.5764C44.8588 49.3303 42.4807 50.3168 40.0004 50.3197Z" fill="white"/>
</svg>
